# xmcd
#
# Track frame offsets: 
#        150
#        15900
#        27389
#        41715
#        55320
#        64872
#        77906
#        90841
#        106578
#        119590
#
# Disc length: 1827 seconds
#
# Revision: 0
# Processed by: cddbd v1.5.1PL0 Copyright (c) Steve Scherf et al.
# Submitted via: ExactAudioCopy v0.95a5
#
DISCID=7407210a
DTITLE=C. W. McCall - Roses For Mama
DYEAR=1977
DGENRE=Country
TTITLE0=Roses For Mama
TTITLE1=The Only Light
TTITLE2=Livin' Within My Means
TTITLE3=Watch The Wildwood Flowers
TTITLE4=Take My Duds To The Junkman
TTITLE5=The Battle Of New Orleans
TTITLE6=I Don't Know (& But I Don't Care)
TTITLE7=The Gallopin' Goose
TTITLE8=Night Hawk
TTITLE9=Old Glory
EXTD=(c)1977 Polydor USA\nKatalog: Polydor PD-1-6125\nProduced by Don 
EXTD=Sears, Chip Davis\nArranged by Chip Davis\nEngineered by Don Sear
EXTD=s. Ron Ubel, John Boyd, Jim Wheeler\nRecorded and Mastered At Sou
EXTD=nd Recorders, Inc. Omaha, Nebraska And Kansas City, Missouri.
EXTT0=
EXTT1=
EXTT2=
EXTT3=
EXTT4=
EXTT5=
EXTT6=
EXTT7=
EXTT8=
EXTT9=
PLAYORDER=
